<svg width="345" height="345" viewBox="0 0 345 345" fill="none" xmlns="http://www.w3.org/2000/svg">
<rect width="345" height="345" fill="white"/>
<path d="M284 172C284 160.954 292.954 152 304 152C315.046 152 324 160.954 324 172C324 183.046 315.046 192 304 192C292.954 192 284 183.046 284 172Z" fill="black"/>
<line x1="100.105" y1="172.462" x2="203.612" y2="172.462" stroke="black" stroke-width="8.27954"/>
<path d="M112 177C112 132.817 147.817 97 192 97C236.183 97 272 132.817 272 177C272 221.183 236.183 257 192 257C147.817 257 112 221.183 112 177Z" stroke="black" stroke-width="14" stroke-linecap="round"/>
<path d="M172 173C172 145.386 194.386 123 222 123C249.614 123 272 145.386 272 173C272 200.614 249.614 223 222 223C194.386 223 172 200.614 172 173Z" fill="black"/>
<path d="M25 171.5C25 150.789 41.7893 134 62.5 134C83.2107 134 100 150.789 100 171.5C100 192.211 83.2107 209 62.5 209C41.7893 209 25 192.211 25 171.5Z" fill="black"/>
<path d="M303 206C295.173 228.352 280.535 248.119 260.856 262.909C241.178 277.699 217.303 286.878 192.121 289.334C166.939 291.79 141.53 287.419 118.969 276.75C96.4076 266.081 77.6618 249.57 65 229.217" stroke="black" stroke-width="8" stroke-linecap="round"/>
<path d="M303 139C295.173 116.648 280.535 96.881 260.856 82.091C241.178 67.3011 217.303 58.1224 192.121 55.666C166.939 53.2095 141.53 57.5805 118.969 68.25C96.4076 78.9195 77.6618 95.43 65 115.783" stroke="black" stroke-width="8" stroke-linecap="round"/>
</svg>
