<svg width="345" height="345" viewBox="0 0 345 345" fill="none" xmlns="http://www.w3.org/2000/svg">
<rect width="345" height="345" fill="white"/>
<path d="M285 168C285 159.163 292.163 152 301 152C309.837 152 317 159.163 317 168C317 176.837 309.837 184 301 184C292.163 184 285 176.837 285 168Z" fill="#EAF4FF"/>
<line x1="98.1052" y1="167.462" x2="201.612" y2="167.462" stroke="#BFD8FF" stroke-width="8.27954"/>
<path d="M147 167.5C147 136.848 171.848 112 202.5 112C233.152 112 258 136.848 258 167.5C258 198.152 233.152 223 202.5 223C171.848 223 147 198.152 147 167.5Z" stroke="#EAF4FF" stroke-width="11.5914" stroke-linecap="round"/>
<path d="M185 167.5C185 148.998 199.998 134 218.5 134C237.002 134 252 148.998 252 167.5C252 186.002 237.002 201 218.5 201C199.998 201 185 186.002 185 167.5Z" fill="#EAF4FF"/>
<path d="M28 169C28 149.67 43.67 134 63 134C82.33 134 98 149.67 98 169C98 188.33 82.33 204 63 204C43.67 204 28 188.33 28 169Z" fill="#D8B84A"/>
<path d="M301 201C293.173 223.352 278.535 243.119 258.856 257.909C239.178 272.699 215.303 281.878 190.121 284.334C164.939 286.79 139.53 282.419 116.969 271.75C94.4076 261.081 75.6618 244.57 63 224.217" stroke="#8FCFFF" stroke-width="11.2602" stroke-linecap="round"/>
<path d="M301 134C293.173 111.648 278.535 91.881 258.856 77.091C239.178 62.3011 215.303 53.1224 190.121 50.666C164.939 48.2095 139.53 52.5805 116.969 63.25C94.4076 73.9195 75.6618 90.43 63 110.783" stroke="#8FCFFF" stroke-width="11.2602" stroke-linecap="round"/>
</svg>
