<svg width="345" height="345" viewBox="0 0 345 345" fill="none" xmlns="http://www.w3.org/2000/svg">
<path d="M345 75.4688L345 269.531C345 311.211 311.211 345 269.531 345L75.4688 345C33.7885 345 0 311.211 0 269.531L0 75.4687C0 33.7885 33.7885 0 75.4688 0L269.531 0C311.211 0 345 33.7885 345 75.4688Z" fill="#F7F7F7"/>
<path d="M135 172.5C135 135.773 164.325 106 200.5 106C236.675 106 266 135.773 266 172.5C266 209.227 236.675 239 200.5 239C164.325 239 135 209.227 135 172.5Z" stroke="black" stroke-width="14" stroke-linecap="round"/>
<path d="M298 176.2C298 165.596 306.596 157 317.2 157C327.804 157 336.4 165.596 336.4 176.2C336.4 186.804 327.804 195.4 317.2 195.4C306.596 195.4 298 186.804 298 176.2Z" fill="black"/>
<path d="M8 176C8 151.147 28.1472 131 53 131C77.8528 131 98 151.147 98 176C98 200.853 77.8528 221 53 221C28.1472 221 8 200.853 8 176Z" fill="black"/>
<path d="M317 146C308.022 118.326 291.231 93.8526 268.659 75.5413C246.086 57.2299 218.7 45.8659 189.815 42.8245C160.93 39.7832 131.784 45.1949 105.905 58.4048C80.0264 71.6146 58.5238 92.0562 44 117.256" stroke="black" stroke-width="13.6" stroke-linecap="round"/>
<path d="M317 205C308.022 232.674 291.231 257.147 268.659 275.459C246.086 293.77 218.7 305.134 189.815 308.175C160.93 311.217 131.784 305.805 105.905 292.595C80.0264 279.385 58.5238 258.944 44 233.744" stroke="black" stroke-width="13.6" stroke-linecap="round"/>
<path d="M181 173C181 150.909 198.909 133 221 133C243.091 133 261 150.909 261 173C261 195.091 243.091 213 221 213C198.909 213 181 195.091 181 173Z" fill="black"/>
<line x1="84" y1="173" x2="203" y2="173" stroke="black" stroke-width="10"/>
</svg>
