<svg width="329" height="281" viewBox="0 0 329 281" fill="none" xmlns="http://www.w3.org/2000/svg">
<path d="M127 137.3C127 100.573 156.325 70.8 192.5 70.8C228.675 70.8 258 100.573 258 137.3C258 174.027 228.675 203.8 192.5 203.8C156.325 203.8 127 174.027 127 137.3Z" stroke="black" stroke-width="14" stroke-linecap="round"/>
<path d="M290 141C290 130.396 298.596 121.8 309.2 121.8C319.804 121.8 328.4 130.396 328.4 141C328.4 151.604 319.804 160.2 309.2 160.2C298.596 160.2 290 151.604 290 141Z" fill="black"/>
<path d="M0 140.8C0 115.947 20.1472 95.8 45 95.8C69.8528 95.8 90 115.947 90 140.8C90 165.653 69.8528 185.8 45 185.8C20.1472 185.8 0 165.653 0 140.8Z" fill="black"/>
<path d="M309 110.8C300.022 83.1262 283.231 58.6526 260.659 40.3413C238.086 22.03 210.7 10.6659 181.815 7.62456C152.93 4.58321 123.784 9.99496 97.9053 23.2048C72.0264 36.4146 50.5238 56.8562 36 82.0555" stroke="black" stroke-width="13.6" stroke-linecap="round"/>
<path d="M309 169.8C300.022 197.474 283.231 221.947 260.659 240.259C238.086 258.57 210.7 269.934 181.815 272.975C152.93 276.017 123.784 270.605 97.9053 257.395C72.0264 244.185 50.5238 223.744 36 198.545" stroke="black" stroke-width="13.6" stroke-linecap="round"/>
<path d="M173 137.8C173 115.709 190.909 97.8 213 97.8C235.091 97.8 253 115.709 253 137.8C253 159.891 235.091 177.8 213 177.8C190.909 177.8 173 159.891 173 137.8Z" fill="black"/>
<line x1="76" y1="137.8" x2="195" y2="137.8" stroke="black" stroke-width="10"/>
</svg>
